<?xml version="1.0" encoding="utf-8"?>
<!-- Generator: Adobe Illustrator 16.0.4, SVG Export Plug-In . SVG Version: 6.00 Build 0)  -->
<!DOCTYPE svg PUBLIC "-//W3C//DTD SVG 1.1//EN" "http://www.w3.org/Graphics/SVG/1.1/DTD/svg11.dtd">
<svg version="1.1" id="Layer_1" xmlns="http://www.w3.org/2000/svg" xmlns:xlink="http://www.w3.org/1999/xlink" x="0px" y="0px"
	 width="243.773px" height="300px" viewBox="0 0 243.773 300" enable-background="new 0 0 243.773 300" xml:space="preserve">
<rect x="112.512" y="56.249" fill="#FFFFFF" width="18.756" height="18.751"/>
<rect x="75.008" y="37.496" fill="#222221" width="18.751" height="18.749"/>
<rect x="112.512" y="37.496" fill="#222221" width="18.756" height="18.749"/>
<rect x="206.276" y="37.496" fill="#222221" width="18.752" height="37.504"/>
<rect x="37.503" y="18.751" fill="#222221" width="18.751" height="18.745"/>
<rect x="187.53" y="18.751" fill="#222221" width="18.748" height="18.745"/>
<rect x="56.254" fill="#222221" width="131.263" height="18.751"/>
<rect x="37.503" y="168.751" fill="#222221" width="18.751" height="18.743"/>
<rect x="187.53" y="168.751" fill="#222221" width="18.748" height="18.743"/>
<polygon fill="#222221" points="131.268,56.249 131.268,75 112.512,75 112.512,56.249 93.759,56.249 93.759,93.751 131.268,93.751 
	131.268,112.496 150.019,112.496 150.019,56.249 "/>
<rect x="37.503" y="262.498" fill="#222221" width="18.751" height="18.751"/>
<rect x="187.53" y="262.498" fill="#222221" width="18.748" height="18.751"/>
<polygon fill="#222221" points="93.759,225 93.759,262.498 112.512,262.498 112.512,243.751 131.268,243.751 131.268,262.498 
	150.019,262.498 150.019,225 "/>
<polygon fill="#222221" points="75.008,93.751 75.008,131.247 75.008,131.251 75.003,131.251 56.254,131.251 56.254,168.751 
	75.008,168.751 75.008,225 93.759,225 93.759,93.751 "/>
<polygon fill="#FFFFFF" points="131.268,112.496 131.268,93.751 93.759,93.751 93.759,225 150.019,225 150.019,112.496 "/>
<polygon fill="#222221" points="168.77,131.251 168.77,112.496 150.019,112.496 150.019,225 168.77,225 168.77,168.751 
	187.517,168.751 187.517,131.251 "/>
<path fill="#FF6400" d="M206.278,75V37.496H187.53v0.119l-0.013-0.119h0.013V18.751h-0.013H56.254v18.745H37.503V75H18.754v150
	h18.749v37.498h18.751v18.751h131.263v-18.751h0.013h18.748V225h18.75V75H206.278z M206.276,187.494H187.53h-0.013v-18.743H168.77
	V225h-18.751v37.498h-18.751v-18.747h-18.756v18.747H93.759v-18.747V225H75.008h-0.005v-56.249H56.254v18.743H37.503v-18.743h18.751
	v-37.504h18.749V93.751h18.756V56.249H74.996l0.007-0.004V37.496h0.005h18.751v18.749h18.753V37.496h18.756v18.749h18.751v0.004
	v56.247h18.751v18.751h18.76v37.504h18.746V187.494z"/>
<rect x="225.031" y="75" fill="#222221" width="18.742" height="150"/>
<rect x="206.276" y="225" fill="#222221" width="18.752" height="37.498"/>
<rect x="56.254" y="281.249" fill="#222221" width="131.263" height="18.751"/>
<rect x="18.754" y="225" fill="#222221" width="18.749" height="37.498"/>
<rect x="0" y="75" fill="#222221" width="18.751" height="150"/>
<rect x="18.754" y="37.496" fill="#222221" width="18.749" height="37.504"/>
</svg>
